HIERARCHY
ROOT joint_Root
{
	OFFSET 0.0 0.0 0.0
	CHANNELS 6 Xposition Yposition Zposition Zrotation Xrotation Yrotation 
	JOINT Hips
	{
		OFFSET 4.5925 91.4895 -427.239
		CHANNELS 6 Xposition Yposition Zposition Zrotation Xrotation Yrotation 
		JOINT Spine
		{
			OFFSET 15.7357 0.0 0.0
			CHANNELS 6 Xposition Yposition Zposition Zrotation Xrotation Yrotation 
			JOINT Chest
			{
				OFFSET 8.98455 -0.406207 0.0
				CHANNELS 6 Xposition Yposition Zposition Zrotation Xrotation Yrotation 
				JOINT Neck
				{
					OFFSET 16.3773 0.0 0.0
					CHANNELS 6 Xposition Yposition Zposition Zrotation Xrotation Yrotation 
					JOINT Head
					{
						OFFSET 6.45672 0.0 0.0
						CHANNELS 6 Xposition Yposition Zposition Zrotation Xrotation Yrotation 
						End Site
						{
							OFFSET 0.0 0.0 0.0
						}
					}
				}
				JOINT Shoulder_L
				{
					OFFSET 12.9942 -0.242716 4.98039
					CHANNELS 6 Xposition Yposition Zposition Zrotation Xrotation Yrotation 
					JOINT UpperArm_L
					{
						OFFSET 5.34809 0.0 0.0
						CHANNELS 6 Xposition Yposition Zposition Zrotation Xrotation Yrotation 
						JOINT LowerArm_L
						{
							OFFSET 24.3286 1.87007e-05 0.0
							CHANNELS 6 Xposition Yposition Zposition Zrotation Xrotation Yrotation 
							JOINT Hand_L
							{
								OFFSET 22.2916 0.0 0.0
								CHANNELS 6 Xposition Yposition Zposition Zrotation Xrotation Yrotation 
								End Site
								{
									OFFSET 0.0 0.0 0.0
								}
							}
						}
					}
				}
				JOINT Shoulder_R
				{
					OFFSET 12.9945 -0.242716 -4.98039
					CHANNELS 6 Xposition Yposition Zposition Zrotation Xrotation Yrotation 
					JOINT UpperArm_R
					{
						OFFSET -5.34813 0.0 0.0
						CHANNELS 6 Xposition Yposition Zposition Zrotation Xrotation Yrotation 
						JOINT LowerArm_R
						{
							OFFSET -24.3289 0.000322201 0.0
							CHANNELS 6 Xposition Yposition Zposition Zrotation Xrotation Yrotation 
							JOINT Hand_R
							{
								OFFSET -22.2915 -0.000108084 0.0
								CHANNELS 6 Xposition Yposition Zposition Zrotation Xrotation Yrotation 
								End Site
								{
									OFFSET 0.0 0.0 0.0
								}
							}
						}
					}
				}
			}
		}
		JOINT UpperLeg_L
		{
			OFFSET -2.19248 -6.46944 0.0
			CHANNELS 6 Xposition Yposition Zposition Zrotation Xrotation Yrotation 
			JOINT LowerLeg_L
			{
				OFFSET 39.0811 0.0 -1.23785e-05
				CHANNELS 6 Xposition Yposition Zposition Zrotation Xrotation Yrotation 
				JOINT Foot_L
				{
					OFFSET 40.9854 0.0 -1.26872e-05
					CHANNELS 6 Xposition Yposition Zposition Zrotation Xrotation Yrotation 
					JOINT Toes_L
					{
						OFFSET 11.7543 0.0 0.0
						CHANNELS 6 Xposition Yposition Zposition Zrotation Xrotation Yrotation 
						End Site
						{
							OFFSET 0.0 0.0 0.0
						}
					}
				}
			}
		}
		JOINT UpperLeg_R
		{
			OFFSET -2.19251 6.46944 0.0
			CHANNELS 6 Xposition Yposition Zposition Zrotation Xrotation Yrotation 
			JOINT LowerLeg_R
			{
				OFFSET -39.0811 -0.00228153 -0.0401928
				CHANNELS 6 Xposition Yposition Zposition Zrotation Xrotation Yrotation 
				JOINT Foot_R
				{
					OFFSET -40.9854 0.0 0.0
					CHANNELS 6 Xposition Yposition Zposition Zrotation Xrotation Yrotation 
					JOINT Toes_R
					{
						OFFSET -11.7543 0.0 0.0
						CHANNELS 6 Xposition Yposition Zposition Zrotation Xrotation Yrotation 
						End Site
						{
							OFFSET 0.0 0.0 0.0
						}
					}
				}
			}
		}
	}
}
MOTION
Frames:	5
Frame Time:	0.0333333
0.000000 0.000000 0.000000 0.000000 0.000000 -0.000000 3.450330 90.549500 -2.452650 89.810800 -5.802690 8.571190 15.735700 0.000005 -0.000001 88.332000 83.605700 -83.319600 8.984550 -0.406207 -0.000000 5.058530 -0.489070 10.035000 16.377300 -0.000001 -0.000001 5.872750 -2.136290 -1.670120 6.456720 -0.000001 -0.000000 -2.029900 -3.230400 -0.273831 12.994200 -0.242716 4.980390 -84.990500 -9.997590 -63.210400 5.348090 -0.000007 -0.000001 -27.424000 -66.152800 -68.157900 24.328600 0.000019 0.000005 5.183480 4.781780 -47.419300 22.291600 -0.000001 0.000005 22.022900 5.364840 -1.827690 12.994500 -0.242716 -4.980390 87.695300 9.563090 -76.382400 -5.348130 -0.000001 -0.000004 -52.594600 15.848700 -8.868930 -24.328900 0.000322 -0.000009 0.121491 0.269695 -24.439800 -22.291500 -0.000108 -0.000004 16.525400 5.413810 -3.391640 -2.192480 -6.469440 -0.000000 -178.224000 -11.824200 -3.871830 39.081100 -0.000007 -0.000012 -0.185068 0.287925 32.731800 40.985400 -0.000006 -0.000013 1.625120 1.027790 -70.552800 11.754300 -0.000000 0.000003 -0.000090 -0.000941 -16.613700 -2.192510 6.469440 -0.000001 173.080000 14.960700 176.327000 -39.081100 -0.002282 -0.040193 -0.216191 0.352967 31.875300 -40.985400 0.000008 0.000006 0.645357 13.317900 -69.143600 -11.754300 -0.000006 -0.000006 -0.001973 -0.028374 -17.726900
0.000000 0.000000 0.000000 0.000000 0.000000 -0.000000 3.493170 90.573500 -2.462040 89.815800 -5.774430 8.497170 15.735700 0.000005 -0.000001 88.276100 83.609000 -83.303700 8.984550 -0.406207 -0.000000 5.051610 -0.500684 9.955620 16.377300 -0.000001 -0.000001 5.762960 -2.131660 -1.661470 6.456720 -0.000001 -0.000000 -2.018180 -3.230220 -0.199005 12.994200 -0.242716 4.980390 -85.073700 -9.860320 -63.282700 5.348090 -0.000007 -0.000001 -27.825900 -66.176900 -68.057000 24.328600 0.000019 0.000005 5.124820 4.648010 -47.900600 22.291600 -0.000001 0.000005 22.434200 5.362670 -1.761370 12.994500 -0.242716 -4.980390 87.696300 9.569080 -76.396000 -5.348130 -0.000001 -0.000004 -52.531100 15.726000 -9.102000 -24.328900 0.000322 -0.000009 0.109714 0.241799 -24.615200 -22.291500 -0.000108 -0.000004 16.575600 5.412860 -3.360090 -2.192480 -6.469440 -0.000000 -178.278000 -11.841800 -3.902930 39.081100 -0.000007 -0.000012 -0.178186 0.278492 32.612400 40.985400 -0.000006 -0.000013 1.669960 1.068470 -70.486100 11.754300 -0.000000 0.000003 -0.000092 -0.000957 -16.614300 -2.192510 6.469440 -0.000001 173.051000 15.039500 176.308000 -39.081100 -0.002282 -0.040193 -0.215071 0.352938 31.746100 -40.985400 0.000008 0.000006 0.617700 13.390800 -69.059400 -11.754300 -0.000006 -0.000006 -0.001895 -0.027400 -17.687200
0.000000 0.000000 0.000000 0.000000 0.000000 -0.000000 3.501180 90.602800 -2.462990 89.791000 -5.765480 8.371650 15.735700 0.000005 -0.000001 88.272700 83.626300 -83.348700 8.984550 -0.406207 -0.000000 5.016360 -0.500793 9.858910 16.377300 -0.000001 -0.000001 5.672990 -2.155030 -1.625360 6.456720 -0.000001 -0.000000 -2.087150 -3.263980 -0.129497 12.994200 -0.242716 4.980390 -85.171100 -9.672430 -63.305800 5.348090 -0.000007 -0.000001 -27.866900 -66.029500 -67.360500 24.328600 0.000019 0.000005 5.013400 4.425310 -48.665700 22.291600 -0.000001 0.000005 22.707500 5.365260 -1.840550 12.994500 -0.242716 -4.980390 87.696200 9.563050 -76.387600 -5.348130 -0.000001 -0.000004 -52.560100 15.697300 -9.282550 -24.328900 0.000322 -0.000009 0.100690 0.221100 -24.713200 -22.291500 -0.000108 -0.000004 16.554300 5.414400 -3.411310 -2.192480 -6.469440 -0.000000 -178.280000 -11.866700 -3.969290 39.081100 -0.000007 -0.000012 -0.177216 0.278356 32.483200 40.985400 -0.000006 -0.000013 1.683180 1.101210 -70.417100 11.754300 -0.000000 0.000003 -0.000085 -0.000898 -16.612100 -2.192510 6.469440 -0.000001 173.077000 15.172800 176.271000 -39.081100 -0.002282 -0.040193 -0.213375 0.352486 31.579400 -40.985400 0.000008 0.000006 0.622439 13.505400 -68.971600 -11.754300 -0.000006 -0.000006 -0.001900 -0.027453 -17.689400
0.000000 0.000000 0.000000 0.000000 0.000000 -0.000000 3.485360 90.640400 -2.445930 89.797700 -5.757920 8.249620 15.735700 0.000005 -0.000001 88.410900 83.645500 -83.565000 8.984550 -0.406207 -0.000000 4.976540 -0.468914 9.701320 16.377300 -0.000001 -0.000001 5.587980 -2.187980 -1.589240 6.456720 -0.000001 -0.000000 -2.084400 -3.332540 -0.015894 12.994200 -0.242716 4.980390 -85.302200 -9.440660 -63.389200 5.348090 -0.000007 -0.000001 -27.992900 -65.633800 -66.226300 24.328600 0.000019 0.000005 5.257650 4.399540 -50.184800 22.291600 -0.000001 0.000005 22.808900 5.361030 -1.711260 12.994500 -0.242716 -4.980390 87.680900 9.615670 -76.372000 -5.348130 -0.000001 -0.000004 -52.570100 15.901600 -9.356940 -24.328900 0.000322 -0.000009 0.104780 0.229318 -24.777100 -22.291500 -0.000108 -0.000004 16.585900 5.413610 -3.385170 -2.192480 -6.469440 -0.000000 -178.309000 -11.841900 -3.984010 39.081100 -0.000007 -0.000012 -0.173851 0.275163 32.285400 40.985400 -0.000006 -0.000013 1.666890 1.090920 -70.328900 11.754300 -0.000000 0.000003 -0.000090 -0.000940 -16.613700 -2.192510 6.469440 -0.000001 173.104000 15.238800 176.255000 -39.081100 -0.002282 -0.040193 -0.209698 0.349077 31.390600 -40.985400 0.000008 0.000006 0.624849 13.549900 -68.890400 -11.754300 -0.000006 -0.000006 -0.001971 -0.028350 -17.725900
0.000000 0.000000 0.000000 0.000000 0.000000 -0.000000 3.450720 90.687500 -2.425880 89.854700 -5.736440 8.048950 15.735700 0.000005 -0.000001 88.485300 83.695000 -83.745400 8.984550 -0.406207 -0.000000 4.876070 -0.451487 9.488230 16.377300 -0.000001 -0.000001 5.475400 -2.184070 -1.616590 6.456720 -0.000001 -0.000000 -2.044070 -3.350670 0.028694 12.994200 -0.242716 4.980390 -85.495000 -9.110120 -63.544000 5.348090 -0.000007 -0.000001 -28.219000 -64.873100 -64.397100 24.328600 0.000019 0.000005 5.098800 3.874710 -52.862500 22.291600 -0.000001 0.000005 23.065300 5.358190 -1.624860 12.994500 -0.242716 -4.980390 87.655600 9.686340 -76.324100 -5.348130 -0.000001 -0.000004 -52.668600 16.175500 -9.433540 -24.328900 0.000322 -0.000009 0.096006 0.211691 -24.633800 -22.291500 -0.000108 -0.000004 16.602500 5.413330 -3.375730 -2.192480 -6.469440 -0.000000 -178.399000 -11.756600 -4.050040 39.081100 -0.000007 -0.000012 -0.172592 0.276066 32.013200 40.985400 -0.000006 -0.000013 1.618500 1.035920 -70.198000 11.754300 -0.000000 0.000003 -0.000091 -0.000952 -16.614200 -2.192510 6.469440 -0.000001 173.107000 15.330800 176.165000 -39.081100 -0.002282 -0.040193 -0.207765 0.348715 31.185200 -40.985400 0.000008 0.000006 0.639035 13.606000 -68.807200 -11.754300 -0.000006 -0.000006 -0.001904 -0.027511 -17.691800
